<?xml version="1.0" encoding="UTF-8"?>
<!-- Uploaded to: SVG Repo, www.svgrepo.com, Generator: SVG Repo Mixer Tools -->
<svg width="800px" height="800px" viewBox="0 -9 50 50" version="1.1" xmlns="http://www.w3.org/2000/svg" xmlns:xlink="http://www.w3.org/1999/xlink">
    
    <title>casino-cards</title>
    <desc>Created with Sketch.</desc>
    <defs>
        <linearGradient x1="50%" y1="0%" x2="50%" y2="100%" id="linearGradient-1">
            <stop stop-color="#E6E8EC" offset="0%">
</stop>
            <stop stop-color="#BDC0D0" offset="100%">
</stop>
        </linearGradient>
        <linearGradient x1="50%" y1="0%" x2="50%" y2="100%" id="linearGradient-2">
            <stop stop-color="#E83E3E" offset="0%">
</stop>
            <stop stop-color="#CD1D1D" offset="100%">
</stop>
        </linearGradient>
        <linearGradient x1="50%" y1="0%" x2="50%" y2="100%" id="linearGradient-3">
            <stop stop-color="#E83E3E" offset="0%">
</stop>
            <stop stop-color="#CD1D1D" offset="100%">
</stop>
        </linearGradient>
        <linearGradient x1="50%" y1="0%" x2="50%" y2="100%" id="linearGradient-4">
            <stop stop-color="#F8F8FB" offset="0%">
</stop>
            <stop stop-color="#EEEFF6" offset="100%">
</stop>
        </linearGradient>
    </defs>
    <g id="icons" stroke="none" stroke-width="1" fill="none" fill-rule="evenodd">
        <g id="ui-gambling-website-lined-icnos-casinoshunter" transform="translate(-985.000000, -2036.000000)" fill-rule="nonzero">
            <g id="4" transform="translate(50.000000, 1871.000000)">
                <g id="casino-cards" transform="translate(933.997996, 165.000000)">
                    <g id="card-copy" transform="translate(14.000000, 16.984775) rotate(-15.000000) translate(-14.000000, -16.984775) translate(4.000000, 3.984775)">
                        <path d="M16.8235294,0 C18.512871,0 19.8823529,1.36948194 19.8823529,3.05882353 L19.8823529,22.9411765 C19.8823529,24.6305181 18.512871,26 16.8235294,26 L3.05882353,26 C1.36948194,26 0,24.6305181 0,22.9411765 L0,3.05882353 C0,1.36948194 1.36948194,0 3.05882353,0 L16.8235294,0 Z" id="Path" fill="url(#linearGradient-1)">
</path>
                        <path d="M5.35294118,3.05882353 C5.77527657,3.05882353 6.11764706,3.40119401 6.11764706,3.82352941 C6.11764706,4.24586481 5.77527657,4.58823529 5.35294118,4.58823529 L3.82352941,4.58823529 C3.40119401,4.58823529 3.05882353,4.24586481 3.05882353,3.82352941 C3.05882353,3.40119401 3.40119401,3.05882353 3.82352941,3.05882353 L5.35294118,3.05882353 Z" id="Path" fill="url(#linearGradient-2)">
</path>
                        <path d="M16.0588235,21.4117647 C16.4811589,21.4117647 16.8235294,21.7541352 16.8235294,22.1764706 C16.8235294,22.598806 16.4811589,22.9411765 16.0588235,22.9411765 L14.5294118,22.9411765 C14.1070764,22.9411765 13.7647059,22.598806 13.7647059,22.1764706 C13.7647059,21.7541352 14.1070764,21.4117647 14.5294118,21.4117647 L16.0588235,21.4117647 Z" id="Path" fill="url(#linearGradient-2)">
</path>
                        <path d="M11.6108709,9.17647059 C12.2837685,9.17647059 12.9285431,9.44345447 13.4041146,9.91903146 C13.8797162,10.3946385 14.1470588,11.0398245 14.1470588,11.7122895 C14.1470588,12.3811484 13.8828379,13.0227126 13.4184241,13.4906234 L10.4972014,16.5838801 C10.3529005,16.7368566 10.1515035,16.8235294 9.94117647,16.8235294 C9.7308494,16.8235294 9.52945245,16.7368566 9.38532135,16.58406 L6.46996259,13.4972665 C5.99938267,13.0225085 5.73529412,12.3809682 5.73529412,11.7122895 C5.73529412,11.0396454 6.0023697,10.3945119 6.47784468,9.91903146 C6.9533205,9.4435502 7.59844896,9.17647059 8.27108842,9.17647059 C8.8873007,9.17647059 9.48042411,9.40061955 9.94117248,9.80380269 L10.070021,9.69830742 C10.5098868,9.36168471 11.0507346,9.17647059 11.6108709,9.17647059 Z M11.6108709,10.7055762 C11.3823109,10.7055762 11.1614323,10.7835752 10.9841492,10.9247013 L10.8993068,11.0004562 L10.4815961,11.4185648 C10.2057181,11.6937201 9.77218764,11.7148859 9.47239397,11.4817822 L9.40040036,11.4182089 L8.98257567,11.0003792 C8.79418243,10.8116988 8.53808719,10.7055762 8.27108842,10.7055762 C8.00420057,10.7055762 7.74834952,10.8116289 7.5593969,11.0005837 C7.37065064,11.1893321 7.2647846,11.4451025 7.2647846,11.7122895 C7.2647846,11.941307 7.34256373,12.1619367 7.48795516,12.3435821 L7.56623816,12.4310144 L9.94116702,14.9451899 L12.3150838,12.4318677 L12.3985255,12.3392349 C12.5396684,12.1617655 12.6175683,11.9410189 12.6175683,11.7122895 C12.6175683,11.4454386 12.5115378,11.189453 12.322956,11.0005837 C12.1340893,10.8117147 11.8778801,10.7055762 11.6108709,10.7055762 Z M6.50562962,11.8525804 L6.5,11.7122895 L6.50293999,11.8143082 L6.50562962,11.8525804 Z M11.3466571,9.96070985 L11.2637473,9.97550161 L11.0628707,10.0278729 C11.1551761,9.99781354 11.2500814,9.97529745 11.3466571,9.96070985 Z M7.12180156,10.364573 L7.01857649,10.4597571 C7.05189654,10.4266262 7.08630823,10.3948509 7.12180156,10.364573 Z" id="Shape" fill="url(#linearGradient-3)">
</path>
                    </g>
                    <g id="card-copy-2" transform="translate(37.886362, 16.984775) scale(-1, 1) rotate(-15.000000) translate(-37.886362, -16.984775) translate(27.886362, 3.984775)">
                        <path d="M16.8235294,0 C18.512871,0 19.8823529,1.36948194 19.8823529,3.05882353 L19.8823529,22.9411765 C19.8823529,24.6305181 18.512871,26 16.8235294,26 L3.05882353,26 C1.36948194,26 0,24.6305181 0,22.9411765 L0,3.05882353 C0,1.36948194 1.36948194,0 3.05882353,0 L16.8235294,0 Z" id="Path" fill="url(#linearGradient-1)">
</path>
                        <path d="M5.35294118,3.05882353 C5.77527657,3.05882353 6.11764706,3.40119401 6.11764706,3.82352941 C6.11764706,4.24586481 5.77527657,4.58823529 5.35294118,4.58823529 L3.82352941,4.58823529 C3.40119401,4.58823529 3.05882353,4.24586481 3.05882353,3.82352941 C3.05882353,3.40119401 3.40119401,3.05882353 3.82352941,3.05882353 L5.35294118,3.05882353 Z" id="Path" fill="url(#linearGradient-2)">
</path>
                        <path d="M16.0588235,21.4117647 C16.4811589,21.4117647 16.8235294,21.7541352 16.8235294,22.1764706 C16.8235294,22.598806 16.4811589,22.9411765 16.0588235,22.9411765 L14.5294118,22.9411765 C14.1070764,22.9411765 13.7647059,22.598806 13.7647059,22.1764706 C13.7647059,21.7541352 14.1070764,21.4117647 14.5294118,21.4117647 L16.0588235,21.4117647 Z" id="Path" fill="url(#linearGradient-2)">
</path>
                        <path d="M11.6108709,9.17647059 C12.2837685,9.17647059 12.9285431,9.44345447 13.4041146,9.91903146 C13.8797162,10.3946385 14.1470588,11.0398245 14.1470588,11.7122895 C14.1470588,12.3811484 13.8828379,13.0227126 13.4184241,13.4906234 L10.4972014,16.5838801 C10.3529005,16.7368566 10.1515035,16.8235294 9.94117647,16.8235294 C9.7308494,16.8235294 9.52945245,16.7368566 9.38532135,16.58406 L6.46996259,13.4972665 C5.99938267,13.0225085 5.73529412,12.3809682 5.73529412,11.7122895 C5.73529412,11.0396454 6.0023697,10.3945119 6.47784468,9.91903146 C6.9533205,9.4435502 7.59844896,9.17647059 8.27108842,9.17647059 C8.8873007,9.17647059 9.48042411,9.40061955 9.94117248,9.80380269 L10.070021,9.69830742 C10.5098868,9.36168471 11.0507346,9.17647059 11.6108709,9.17647059 Z M11.6108709,10.7055762 C11.3823109,10.7055762 11.1614323,10.7835752 10.9841492,10.9247013 L10.8993068,11.0004562 L10.4815961,11.4185648 C10.2057181,11.6937201 9.77218764,11.7148859 9.47239397,11.4817822 L9.40040036,11.4182089 L8.98257567,11.0003792 C8.79418243,10.8116988 8.53808719,10.7055762 8.27108842,10.7055762 C8.00420057,10.7055762 7.74834952,10.8116289 7.5593969,11.0005837 C7.37065064,11.1893321 7.2647846,11.4451025 7.2647846,11.7122895 C7.2647846,11.941307 7.34256373,12.1619367 7.48795516,12.3435821 L7.56623816,12.4310144 L9.94116702,14.9451899 L12.3150838,12.4318677 L12.3985255,12.3392349 C12.5396684,12.1617655 12.6175683,11.9410189 12.6175683,11.7122895 C12.6175683,11.4454386 12.5115378,11.189453 12.322956,11.0005837 C12.1340893,10.8117147 11.8778801,10.7055762 11.6108709,10.7055762 Z M6.50562962,11.8525804 L6.5,11.7122895 L6.50293999,11.8143082 L6.50562962,11.8525804 Z M11.3466571,9.96070985 L11.2637473,9.97550161 L11.0628707,10.0278729 C11.1551761,9.99781354 11.2500814,9.97529745 11.3466571,9.96070985 Z M7.12180156,10.364573 L7.01857649,10.4597571 C7.05189654,10.4266262 7.08630823,10.3948509 7.12180156,10.364573 Z" id="Shape" fill="url(#linearGradient-3)">
</path>
                    </g>
                    <g id="card" transform="translate(16.002004, 0.000000)">
                        <path d="M16.8235294,0 C18.512871,0 19.8823529,1.36948194 19.8823529,3.05882353 L19.8823529,22.9411765 C19.8823529,24.6305181 18.512871,26 16.8235294,26 L3.05882353,26 C1.36948194,26 0,24.6305181 0,22.9411765 L0,3.05882353 C0,1.36948194 1.36948194,0 3.05882353,0 L16.8235294,0 Z" id="Path" fill="url(#linearGradient-4)">
</path>
                        <path d="M5.35294118,3.05882353 C5.77527657,3.05882353 6.11764706,3.40119401 6.11764706,3.82352941 C6.11764706,4.24586481 5.77527657,4.58823529 5.35294118,4.58823529 L3.82352941,4.58823529 C3.40119401,4.58823529 3.05882353,4.24586481 3.05882353,3.82352941 C3.05882353,3.40119401 3.40119401,3.05882353 3.82352941,3.05882353 L5.35294118,3.05882353 Z" id="Path" fill="url(#linearGradient-2)">
</path>
                        <path d="M16.0588235,21.4117647 C16.4811589,21.4117647 16.8235294,21.7541352 16.8235294,22.1764706 C16.8235294,22.598806 16.4811589,22.9411765 16.0588235,22.9411765 L14.5294118,22.9411765 C14.1070764,22.9411765 13.7647059,22.598806 13.7647059,22.1764706 C13.7647059,21.7541352 14.1070764,21.4117647 14.5294118,21.4117647 L16.0588235,21.4117647 Z" id="Path" fill="url(#linearGradient-2)">
</path>
                        <path d="M11.6108709,9.17647059 C12.2837685,9.17647059 12.9285431,9.44345447 13.4041146,9.91903146 C13.8797162,10.3946385 14.1470588,11.0398245 14.1470588,11.7122895 C14.1470588,12.3811484 13.8828379,13.0227126 13.4184241,13.4906234 L10.4972014,16.5838801 C10.3529005,16.7368566 10.1515035,16.8235294 9.94117647,16.8235294 C9.7308494,16.8235294 9.52945245,16.7368566 9.38532135,16.58406 L6.46996259,13.4972665 C5.99938267,13.0225085 5.73529412,12.3809682 5.73529412,11.7122895 C5.73529412,11.0396454 6.0023697,10.3945119 6.47784468,9.91903146 C6.9533205,9.4435502 7.59844896,9.17647059 8.27108842,9.17647059 C8.8873007,9.17647059 9.48042411,9.40061955 9.94117248,9.80380269 L10.070021,9.69830742 C10.5098868,9.36168471 11.0507346,9.17647059 11.6108709,9.17647059 Z M11.6108709,10.7055762 C11.3823109,10.7055762 11.1614323,10.7835752 10.9841492,10.9247013 L10.8993068,11.0004562 L10.4815961,11.4185648 C10.2057181,11.6937201 9.77218764,11.7148859 9.47239397,11.4817822 L9.40040036,11.4182089 L8.98257567,11.0003792 C8.79418243,10.8116988 8.53808719,10.7055762 8.27108842,10.7055762 C8.00420057,10.7055762 7.74834952,10.8116289 7.5593969,11.0005837 C7.37065064,11.1893321 7.2647846,11.4451025 7.2647846,11.7122895 C7.2647846,11.941307 7.34256373,12.1619367 7.48795516,12.3435821 L7.56623816,12.4310144 L9.94116702,14.9451899 L12.3150838,12.4318677 L12.3985255,12.3392349 C12.5396684,12.1617655 12.6175683,11.9410189 12.6175683,11.7122895 C12.6175683,11.4454386 12.5115378,11.189453 12.322956,11.0005837 C12.1340893,10.8117147 11.8778801,10.7055762 11.6108709,10.7055762 Z M6.50562962,11.8525804 L6.5,11.7122895 L6.50293999,11.8143082 L6.50562962,11.8525804 Z M11.3466571,9.96070985 L11.2637473,9.97550161 L11.0628707,10.0278729 C11.1551761,9.99781354 11.2500814,9.97529745 11.3466571,9.96070985 Z M7.12180156,10.364573 L7.01857649,10.4597571 C7.05189654,10.4266262 7.08630823,10.3948509 7.12180156,10.364573 Z" id="Shape" fill="url(#linearGradient-3)">
</path>
                    </g>
                </g>
            </g>
        </g>
    </g>
</svg>