<?xml version="1.0" encoding="iso-8859-1"?>
<!-- Uploaded to: SVG Repo, www.svgrepo.com, Generator: SVG Repo Mixer Tools -->
<svg height="800px" width="800px" version="1.1" id="Layer_1" xmlns="http://www.w3.org/2000/svg" xmlns:xlink="http://www.w3.org/1999/xlink" 
	 viewBox="0 0 512 512" xml:space="preserve">
<path style="fill:#DEDCD7;" d="M256,0C114.615,0,0,114.615,0,256c0,58.64,19.731,112.663,52.895,155.826
	C99.693,472.732,256,512,256,512s156.307-39.268,203.105-100.174C492.269,368.663,512,314.64,512,256C512,114.615,397.385,0,256,0z"
	/>
<path style="fill:#5B7063;" d="M256,512c82.745,0,156.307-39.268,203.105-100.174H52.895C99.693,472.732,173.255,512,256,512z"/>
<g>
	<path style="fill:#ADA999;" d="M13.354,420.176c-1.032,0-2.081-0.193-3.098-0.6c-4.281-1.712-6.362-6.57-4.65-10.851l31.165-77.913
		c1.712-4.281,6.569-6.365,10.851-4.65c4.281,1.712,6.362,6.57,4.65,10.851l-31.165,77.913
		C19.802,418.19,16.667,420.176,13.354,420.176z"/>
	<path style="fill:#ADA999;" d="M498.646,420.176c-3.314,0-6.448-1.986-7.753-5.249l-31.165-77.913
		c-1.713-4.281,0.37-9.139,4.65-10.851c4.284-1.714,9.139,0.371,10.851,4.65l31.165,77.913c1.713,4.281-0.37,9.139-4.65,10.851
		C500.727,419.984,499.677,420.176,498.646,420.176z"/>
</g>
<path style="fill:#4D5B59;" d="M267.13,367.304H244.87c-24.588,0-44.522,19.934-44.522,44.522l0,0h111.304l0,0
	C311.652,387.238,291.719,367.304,267.13,367.304z"/>
<path style="fill:#6A9093;" d="M473.199,326.6H256l-22.261,26.821L256,378.435c15.534,0,28.589,10.606,32.321,24.971
	c1.283,4.939,5.685,8.42,10.788,8.42h139.858c10.214,0,19.119-6.952,21.596-16.861l14.695-58.781
	C476.137,332.672,475.235,329.194,473.199,326.6z"/>
<path style="fill:#92BCBC;" d="M38.801,326.6c-2.036,2.593-2.937,6.073-2.059,9.583l14.696,58.781
	c2.478,9.909,11.381,16.862,21.596,16.862h139.858c5.102,0,9.505-3.482,10.788-8.42c3.732-14.365,16.787-24.971,32.321-24.971V326.6
	H38.801z"/>
<path style="fill:#AB5034;" d="M256,326.6v18.443v33.391c15.534,0,28.589,10.606,32.321,24.971c1.283,4.939,5.685,8.42,10.788,8.42
	h34.805l-11.13-85.226H256z"/>
<path style="fill:#6A9093;" d="M256,345.043c-36.883,0-66.783,29.9-66.783,66.783h23.674c5.102,0,9.505-3.482,10.788-8.42
	c3.732-14.365,16.787-24.971,32.321-24.971s28.589,10.606,32.321,24.971c1.283,4.939,5.685,8.42,10.788,8.42h23.674
	C322.783,374.943,292.883,345.043,256,345.043z"/>
<polygon style="fill:#AB5034;" points="122.435,326.6 116.87,411.826 178.087,411.826 189.217,326.6 "/>
<path style="fill:#8D472E;" d="M473.199,326.6h-83.634l5.565,85.226h43.836c10.214,0,19.119-6.952,21.596-16.861l14.695-58.781
	C476.137,332.672,475.235,329.194,473.199,326.6z"/>
<path style="opacity:0.25;fill:#493023;enable-background:new    ;" d="M475.258,336.183c0.877-3.511-0.024-6.99-2.059-9.583H38.801
	c-2.036,2.593-2.937,6.073-2.059,9.583l5.24,20.962c23.235,11.182,49.322,16.035,75.124,13.759
	c22.593,11.555,48.974,12.388,72.112,2.498c21.341,9.121,45.441,9.121,66.783,0c21.342,9.121,45.441,9.121,66.783,0
	c10.671,4.561,22.03,6.841,33.391,6.841c13.274,0,26.547-3.113,38.721-9.338c4.163,0.367,8.328,0.549,12.493,0.549
	c21.653-0.001,43.145-4.942,62.634-14.323L475.258,336.183z"/>
<path style="fill:#C98A2E;" d="M465.186,322.384c-87.709-5.216-161.736-61.221-193.102-139.008
	c-5.22-12.945-7.737-26.821-7.737-40.779h-6.875c5.142,45.164,31.919,146.794,31.919,146.794s66.015,35.726,100.174,55.652
	c29.28,4.531,59.106-2.108,83.634-18.443C471.329,324.218,468.504,322.582,465.186,322.384z"/>
<path style="fill:#AB5034;" d="M254.527,142.598h-6.875c0,13.958-2.518,27.834-7.737,40.779
	C208.55,261.163,134.524,317.168,46.813,322.384c-3.318,0.197-6.143,1.833-8.012,4.216c24.527,16.335,54.353,22.974,83.633,18.443
	c40.641-23.707,100.174-55.652,100.174-55.652S250.218,180.448,254.527,142.598z"/>
<path style="fill:#D5A150;" d="M267.13,233.739L256,142.598h-4.812c0,83.721-54.571,159.173-128.754,202.446
	c20.221,13.48,46.562,13.48,66.783,0c20.221,13.48,46.562,13.48,66.783,0c20.221,13.48,46.562,13.48,66.783,0L267.13,233.739z"/>
<path style="fill:#8D472E;" d="M260.812,142.598H256v46.216c0,25.853,4.53,51.568,13.985,75.63
	c11.802,30.031,29.707,57.51,52.797,80.6c20.221,13.48,46.562,13.48,66.783,0C315.383,301.771,260.812,226.318,260.812,142.598z"/>
<path style="fill:#AB5034;" d="M253.363,233.739c-1.232,0-2.29,0.856-2.562,2.057c-2.207,9.738-5.121,19.318-8.787,28.648
	c-11.8,30.031-29.706,57.51-52.796,80.6c20.221,13.48,46.562,13.48,66.783,0V236.376C256,234.919,254.82,233.739,253.363,233.739
	L253.363,233.739z"/>
<path style="fill:#8D472E;" d="M256,33.391v44.522l86.697-19.327c3.128-0.697,3.128-5.17,0-5.867L256,33.391z"/>
<path style="fill:#989487;" d="M256,111.304c-4.61,0-8.348-3.738-8.348-8.348V33.391c0-4.61,3.738-8.348,8.348-8.348
	s8.348,3.738,8.348,8.348v69.565C264.348,107.567,260.61,111.304,256,111.304z"/>
<g>
	<path style="fill:#AB5034;" d="M256.257,91.829c-4.727-0.142-8.605,3.649-8.605,8.344v42.424h16.696v-42.074
		C264.348,95.953,260.826,91.967,256.257,91.829z"/>
	<path style="fill:#AB5034;" d="M261.565,153.043h-11.13c-4.61,0-8.348-3.738-8.348-8.348c0-4.61,3.738-8.348,8.348-8.348h11.13
		c4.61,0,8.348,3.738,8.348,8.348C269.913,149.306,266.175,153.043,261.565,153.043z"/>
</g>
</svg>