<?xml version="1.0" encoding="iso-8859-1"?>
<!-- Uploaded to: SVG Repo, www.svgrepo.com, Generator: SVG Repo Mixer Tools -->
<svg version="1.1" id="Layer_1" xmlns="http://www.w3.org/2000/svg" xmlns:xlink="http://www.w3.org/1999/xlink" 
	 viewBox="0 0 511.996 511.996" xml:space="preserve">
<path style="fill:#415E72;" d="M498.758,481.017H12.451c-6.767-0.16-12.223-5.599-12.407-12.367v-93.511
	c0.168-6.783,5.623-12.239,12.407-12.407h487.154c6.775,0.176,12.223,5.631,12.391,12.407v94.311
	C511.06,476.058,505.429,480.977,498.758,481.017z"/>
<g>
	<path style="fill:#FFFFFF;" d="M41.808,434.677c3.024,1.816,6.471,2.792,9.999,2.824c5.703,0,9.031-3.008,9.031-7.367
		c0-4-2.304-6.343-8.135-8.583c-7.055-2.496-11.415-6.159-11.415-12.239c0.328-6.855,6.159-12.151,13.015-11.815
		c0.312,0.016,0.624,0.04,0.936,0.08c3.312-0.112,6.591,0.616,9.543,2.112l-1.536,4.552c-2.52-1.36-5.335-2.064-8.199-2.056
		c-5.895,0-8.143,3.52-8.143,6.479c0,4,2.632,6.023,8.583,8.327c7.311,2.824,11.023,6.343,11.023,12.687
		c0,6.671-4.928,12.439-15.127,12.439c-3.848,0.048-7.647-0.904-11.015-2.76L41.808,434.677z"/>
	<path style="fill:#FFFFFF;" d="M77.517,426.99c-0.472,5.464,3.576,10.279,9.039,10.759c0.536,0.048,1.064,0.048,1.6,0.008
		c2.944,0.096,5.871-0.456,8.583-1.6l0.96,4c-3.264,1.36-6.783,2.016-10.319,1.92c-7.935,0.496-14.775-5.527-15.271-13.463
		c-0.056-0.728-0.04-1.456,0.024-2.176c-0.928-8.263,5.024-15.711,13.287-16.638c0.416-0.048,0.84-0.08,1.256-0.088
		c7.255,0.136,13.023,6.135,12.879,13.383c-0.008,0.408-0.032,0.824-0.08,1.232c-0.008,0.88-0.072,1.752-0.184,2.624L77.517,426.99z
		 M94.044,422.991c0.648-4.368-2.376-8.439-6.743-9.079c-0.36-0.056-0.72-0.08-1.08-0.088c-4.816,0.36-8.567,4.336-8.647,9.167
		H94.044z"/>
	<path style="fill:#FFFFFF;" d="M123.665,441.453l-0.448-3.904h-0.192c-2.24,2.976-5.767,4.688-9.487,4.608
		c-4.848,0.392-9.087-3.224-9.479-8.063c-0.024-0.272-0.032-0.544-0.024-0.824c0-7.495,6.663-11.599,18.646-11.535v-0.64
		c0.464-3.504-2-6.719-5.503-7.183c-0.512-0.064-1.032-0.072-1.544-0.016c-2.856,0.008-5.655,0.808-8.079,2.312l-1.28-3.72
		c3.072-1.848,6.607-2.808,10.191-2.76c9.487,0,11.791,6.479,11.791,12.687v11.599c-0.048,2.488,0.128,4.976,0.512,7.439H123.665z
		 M122.865,425.622c-6.159-0.136-13.143,0.96-13.143,6.983c-0.224,2.744,1.824,5.16,4.568,5.376
		c0.248,0.024,0.496,0.024,0.752,0.008c3.368,0.088,6.399-2.008,7.503-5.191c0.2-0.576,0.304-1.184,0.32-1.792V425.622z"/>
	<path style="fill:#FFFFFF;" d="M137.399,420.135c0-3.648-0.064-6.791-0.256-9.679h4.936l0.184,6.095h0.256
		c1.088-3.888,4.552-6.631,8.583-6.799c0.536-0.008,1.08,0.056,1.6,0.192v5.319c-0.632-0.136-1.272-0.208-1.92-0.192
		c-3.984,0.168-7.223,3.264-7.559,7.239c-0.152,0.864-0.24,1.744-0.248,2.624v16.518h-5.599L137.399,420.135z"/>
	<path style="fill:#FFFFFF;" d="M179.835,440.317c-2.8,1.248-5.839,1.864-8.903,1.8c-8.127,0.416-15.055-5.831-15.471-13.959
		c-0.032-0.632-0.024-1.272,0.024-1.904c-0.416-8.695,6.303-16.078,14.991-16.486c0.56-0.024,1.112-0.024,1.672,0.008
		c2.688-0.032,5.352,0.52,7.815,1.6l-1.28,4.36c-2.016-1.048-4.264-1.552-6.527-1.472c-6.447,0.424-11.327,5.991-10.903,12.431
		c0.376,5.783,4.936,10.423,10.711,10.895c2.392,0.008,4.76-0.512,6.919-1.536L179.835,440.317z"/>
	<path style="fill:#FFFFFF;" d="M186.427,395.977h5.639v19.35h0.128c0.944-1.672,2.328-3.056,4-4c1.752-1.032,3.736-1.584,5.767-1.6
		c4.168,0,10.831,2.56,10.831,13.263v18.462h-5.567v-17.798c0-5-1.856-9.223-7.199-9.223c-3.472,0.064-6.511,2.336-7.559,5.639
		c-0.304,0.864-0.44,1.776-0.384,2.688v18.694h-5.655L186.427,395.977L186.427,395.977z"/>
	<path style="fill:#FFFFFF;" d="M443.043,442.317c-13.727,0-24.854-11.127-24.854-24.854s11.127-24.854,24.854-24.854
		c13.727,0,24.846,11.119,24.854,24.846C467.88,431.174,456.762,442.301,443.043,442.317z M443.043,396.601
		c-11.519,0-20.854,9.335-20.854,20.854c0,11.519,9.335,20.854,20.854,20.854c11.519,0,20.854-9.335,20.854-20.854l0,0
		C463.873,405.944,454.546,396.617,443.043,396.601z"/>
	
		<rect x="464.696" y="430.633" transform="matrix(0.7071 -0.7071 0.7071 0.7071 -175.4812 459.3104)" style="fill:#FFFFFF;" width="4" height="21.694"/>
</g>
<path style="fill:#415E72;" d="M95.235,148.04c-11.439,4.104-23.478,6.247-35.629,6.351c-15.935,0.912-31.565-4.608-43.396-15.311
	C5.252,127.426-0.572,111.868,0.044,95.885c0.168-34.597,23.926-59.914,62.81-59.914c9.911-0.232,19.758,1.592,28.925,5.352
	l-3.6,12.167c-8.087-3.512-16.846-5.216-25.662-4.984c-23.894-1.872-44.78,15.974-46.644,39.868c-0.176,2.256-0.176,4.52,0,6.775
	c0,29.421,17.742,46.812,44.756,46.812c6.807,0.376,13.623-0.68,19.998-3.088v-34.557H57.015V92.246h38.22V148.04z"/>
<path style="fill:#25B6D2;" d="M193.906,110.844c0,30.821-21.35,44.236-41.492,44.236c-22.55,0-39.924-16.51-39.924-42.868
	c0-27.869,18.23-44.236,41.292-44.236C177.74,67.984,193.906,85.374,193.906,110.844z M127.808,111.7
	c0,18.254,10.503,31.997,25.294,31.997c14.479,0,25.318-13.599,25.318-32.365c0-14.111-7.063-31.997-24.982-31.997
	S127.808,95.885,127.808,111.7L127.808,111.7z"/>
<path style="fill:#415E72;" d="M288.473,110.844c0,30.821-21.35,44.236-41.492,44.236c-22.55,0-39.924-16.51-39.924-42.868
	c0-27.869,18.23-44.236,41.292-44.236C272.299,67.984,288.473,85.374,288.473,110.844z M222.375,111.7
	c0,18.254,10.503,31.997,25.294,31.997c14.479,0,25.318-13.599,25.318-32.365c0-14.111-7.063-31.997-24.982-31.997
	S222.367,95.885,222.375,111.7L222.375,111.7z"/>
<path style="fill:#E04F5F;" d="M379.401,69.872c-0.344,6.039-0.688,12.799-0.688,22.918v48.363c0,19.11-3.8,30.821-11.879,38.028
	c-8.503,6.991-19.31,10.551-30.301,9.983c-9.687,0.24-19.262-2.144-27.717-6.887l3.8-11.535c7.399,4.368,15.846,6.623,24.438,6.527
	c15.479,0,26.845-8.095,26.845-29.077v-9.279h-0.344c-5.679,9.079-15.807,14.399-26.502,13.935
	c-20.662,0-35.453-17.598-35.453-40.636c0-28.213,18.398-44.236,37.516-44.236c10.735-0.632,20.87,5.016,25.982,14.479h0.344
	l0.688-12.591L379.401,69.872z M363.722,102.749c0.088-2.32-0.2-4.64-0.856-6.871c-2.632-9.503-11.311-16.062-21.174-15.999
	c-14.455,0-24.798,12.223-24.798,31.501c0,16.366,8.271,29.957,24.614,29.957c9.623-0.056,18.11-6.303,21.006-15.479
	c0.816-2.624,1.224-5.352,1.2-8.095L363.722,102.749z"/>
<path style="fill:#415E72;" d="M403.887,30.979h15.199v122.213h-15.199V30.979z"/>
<path style="fill:#25B6D2;" d="M452.962,114.283c-1.272,14.687,9.599,27.629,24.294,28.901c1.416,0.12,2.848,0.136,4.264,0.024
	c7.911,0.248,15.791-1.216,23.086-4.296l2.576,10.847c-8.775,3.648-18.222,5.399-27.725,5.152
	c-25.638,0-40.948-16.854-40.948-42.004s14.799-44.924,39.06-44.924c27.197,0,34.397,23.926,34.397,39.26
	c-0.024,2.352-0.2,4.704-0.512,7.039H452.962z M497.374,103.436c0.168-9.599-3.952-24.614-21.006-24.614
	c-15.311,0-22.03,14.135-23.198,24.614H497.374z"/>
<g>
	<rect x="0.604" y="237.248" style="fill:#AAC1CE;" width="510.824" height="7.999"/>
	<rect x="93.548" y="285.155" style="fill:#AAC1CE;" width="324.938" height="7.999"/>
</g>
</svg>