<?xml version="1.0" encoding="iso-8859-1"?>
<!-- Uploaded to: SVG Repo, www.svgrepo.com, Generator: SVG Repo Mixer Tools -->
<svg height="800px" width="800px" version="1.1" id="Layer_1" xmlns="http://www.w3.org/2000/svg" xmlns:xlink="http://www.w3.org/1999/xlink" 
	 viewBox="0 0 512 512" xml:space="preserve">
<path style="fill:#515262;" d="M436.966,335.448H75.034c-7.313,0-13.241-5.929-13.241-13.241V189.793
	c0-7.313,5.929-13.241,13.241-13.241h361.931c7.313,0,13.241,5.929,13.241,13.241v132.414
	C450.207,329.519,444.278,335.448,436.966,335.448z"/>
<g>
	<path style="fill:#FFFFFF;" d="M192.704,261.464c-2.17-2.915-5.086-5.14-8.693-6.631c3.057-1.685,5.518-3.93,7.31-6.696
		c2.387-3.671,3.596-8.131,3.596-13.261c0-8.898-3.391-15.799-10.076-20.508c-6.545-4.589-16.122-6.922-28.499-6.922h-28.634
		c-3.665,0-6.635,2.97-6.635,6.635v83.833c0,3.665,2.97,6.635,6.635,6.635h33.052c11.75-0.086,20.788-2.581,26.868-7.398
		c6.166-4.892,9.298-12.267,9.298-21.911C196.927,269.866,195.501,265.233,192.704,261.464z M146.582,227.706h9.762
		c4.762,0,8.207,0.788,10.238,2.354c1.944,1.48,2.894,3.942,2.894,7.506c0,3.066-0.875,5.291-2.678,6.803
		c-1.857,1.555-5.13,2.365-9.74,2.408h-10.475v-19.07H146.582z M168.666,281.81c-1.933,1.642-4.817,2.484-8.564,2.484h-13.521
		v-19.849h14.546c7.062,0.043,10.356,3.369,10.356,10.475C171.485,277.932,170.567,280.19,168.666,281.81z"/>
	<path style="fill:#FFFFFF;" d="M300.407,298.471l-32.042-86.706c-0.959-2.594-3.432-4.317-6.197-4.317h-14.089
		c-2.771,0-5.248,1.729-6.202,4.331l-31.799,86.701c-1.081,2.947,1.1,6.071,4.239,6.071h15.676c3.06,0,5.762-1.994,6.666-4.918
		l3.924-12.705h29.135l3.977,12.728c0.91,2.913,3.607,4.896,6.659,4.896h15.817C299.316,304.552,301.497,301.419,300.407,298.471z
		 M246.89,266.604l8.228-26.674l8.294,26.674H246.89z"/>
	<path style="fill:#FFFFFF;" d="M392.778,297.93l-17.087-33.205c5.227-2.7,9.19-6.188,11.77-10.378
		c2.775-4.525,4.19-10.248,4.19-17.041c0-9.46-3.359-16.9-9.988-22.126c-6.534-5.13-15.648-7.732-27.094-7.732h-31.874
		c-3.665,0-6.635,2.97-6.635,6.635v83.833c0,3.665,2.97,6.635,6.635,6.635h12.237c3.665,0,6.635-2.97,6.635-6.635v-26.733h10.076
		l14.916,29.892c1.064,2.13,3.24,3.477,5.621,3.477h16.559C392.139,304.552,394.334,300.953,392.778,297.93z M363.327,247.933
		c-1.9,1.987-4.849,2.991-8.758,2.991h-13.002v-23.218h13.002c3.919,0,6.771,0.993,8.715,3.046c1.944,2.041,2.926,4.935,2.926,8.628
		C366.21,243.063,365.238,245.946,363.327,247.933z"/>
</g>
<path style="fill:#515262;" d="M436.966,158.897H75.034c-7.313,0-13.241-5.929-13.241-13.241V13.241C61.793,5.929,67.722,0,75.034,0
	h361.931c7.313,0,13.241,5.929,13.241,13.241v132.414C450.207,152.968,444.278,158.897,436.966,158.897z"/>
<g>
	<path style="fill:#FFFFFF;" d="M192.704,84.913c-2.17-2.915-5.086-5.14-8.693-6.631c3.057-1.685,5.518-3.93,7.31-6.696
		c2.387-3.671,3.596-8.131,3.596-13.261c0-8.898-3.391-15.799-10.076-20.508c-6.543-4.588-16.121-6.921-28.498-6.921H127.71
		c-3.665,0-6.635,2.97-6.635,6.635v83.833c0,3.665,2.97,6.635,6.635,6.635h33.052c11.75-0.086,20.788-2.581,26.868-7.398
		c6.166-4.892,9.298-12.267,9.298-21.911C196.927,93.314,195.501,88.681,192.704,84.913z M146.582,51.155h9.762
		c4.762,0,8.207,0.788,10.238,2.354c1.944,1.48,2.894,3.942,2.894,7.506c0,3.066-0.875,5.291-2.678,6.803
		c-1.857,1.555-5.13,2.365-9.74,2.408h-10.475v-19.07H146.582z M168.666,105.258c-1.933,1.642-4.817,2.484-8.564,2.484h-13.521
		V87.893h14.546c7.062,0.043,10.356,3.369,10.356,10.475C171.485,101.38,170.567,103.638,168.666,105.258z"/>
	<path style="fill:#FFFFFF;" d="M300.407,121.919l-32.042-86.706c-0.959-2.594-3.432-4.317-6.197-4.317h-14.089
		c-2.771,0-5.248,1.729-6.202,4.331l-31.799,86.701c-1.081,2.947,1.1,6.071,4.239,6.071h15.676c3.06,0,5.762-1.994,6.666-4.918
		l3.924-12.705h29.135l3.977,12.728c0.91,2.913,3.607,4.896,6.659,4.896h15.817C299.316,128,301.497,124.867,300.407,121.919z
		 M246.89,90.052l8.228-26.674l8.294,26.674H246.89z"/>
	<path style="fill:#FFFFFF;" d="M392.778,121.378l-17.087-33.205c5.227-2.7,9.19-6.188,11.77-10.378
		c2.775-4.525,4.19-10.248,4.19-17.041c0-9.46-3.359-16.9-9.988-22.126c-6.534-5.129-15.648-7.732-27.094-7.732h-31.874
		c-3.665,0-6.635,2.97-6.635,6.635v83.833c0,3.665,2.97,6.635,6.635,6.635h12.237c3.665,0,6.635-2.97,6.635-6.635V94.632h10.076
		l14.916,29.892c1.064,2.13,3.24,3.477,5.621,3.477h16.559C392.139,128,394.334,124.402,392.778,121.378z M363.327,71.381
		c-1.9,1.987-4.849,2.991-8.758,2.991h-13.002V51.155h13.002c3.919,0,6.771,0.993,8.715,3.046c1.944,2.041,2.926,4.935,2.926,8.628
		C366.21,66.511,365.238,69.395,363.327,71.381z"/>
</g>
<path style="fill:#515262;" d="M436.966,512H75.034c-7.313,0-13.241-5.929-13.241-13.241V366.345
	c0-7.313,5.929-13.241,13.241-13.241h361.931c7.313,0,13.241,5.929,13.241,13.241v132.414C450.207,506.071,444.278,512,436.966,512z
	"/>
<g>
	<path style="fill:#FFFFFF;" d="M192.704,438.016c-2.17-2.915-5.086-5.14-8.693-6.631c3.057-1.685,5.518-3.931,7.31-6.696
		c2.387-3.671,3.596-8.131,3.596-13.261c0-8.898-3.391-15.799-10.076-20.508c-6.545-4.589-16.122-6.922-28.499-6.922h-28.634
		c-3.665,0-6.635,2.97-6.635,6.635v83.833c0,3.665,2.97,6.635,6.635,6.635h33.052c11.75-0.086,20.788-2.581,26.868-7.398
		c6.166-4.892,9.298-12.267,9.298-21.911C196.927,446.418,195.501,441.784,192.704,438.016z M146.582,404.258h9.762
		c4.762,0,8.207,0.788,10.238,2.354c1.944,1.48,2.894,3.941,2.894,7.506c0,3.066-0.875,5.291-2.678,6.803
		c-1.857,1.555-5.13,2.365-9.74,2.408h-10.475v-19.07H146.582z M168.666,458.361c-1.933,1.642-4.817,2.484-8.564,2.484h-13.521
		v-19.849h14.546c7.062,0.043,10.356,3.369,10.356,10.475C171.485,454.484,170.567,456.742,168.666,458.361z"/>
	<path style="fill:#FFFFFF;" d="M300.407,475.022l-32.042-86.706c-0.959-2.594-3.432-4.317-6.197-4.317h-14.089
		c-2.771,0-5.248,1.729-6.202,4.331l-31.799,86.701c-1.081,2.947,1.1,6.071,4.239,6.071h15.676c3.06,0,5.762-1.994,6.666-4.918
		l3.924-12.705h29.135l3.977,12.728c0.91,2.913,3.607,4.896,6.659,4.896h15.817C299.316,481.103,301.497,477.971,300.407,475.022z
		 M246.89,443.156l8.228-26.674l8.294,26.674H246.89z"/>
	<path style="fill:#FFFFFF;" d="M392.778,474.482l-17.087-33.205c5.227-2.7,9.19-6.188,11.77-10.378
		c2.775-4.525,4.19-10.248,4.19-17.041c0-9.46-3.359-16.9-9.988-22.126c-6.534-5.13-15.648-7.732-27.094-7.732h-31.874
		c-3.665,0-6.635,2.97-6.635,6.635v83.833c0,3.665,2.97,6.635,6.635,6.635h12.237c3.665,0,6.635-2.97,6.635-6.635v-26.733h10.076
		l14.916,29.892c1.064,2.13,3.24,3.477,5.621,3.477h16.559C392.139,481.103,394.334,477.505,392.778,474.482z M363.327,424.484
		c-1.9,1.987-4.849,2.991-8.758,2.991h-13.002v-23.218h13.002c3.919,0,6.771,0.993,8.715,3.046c1.944,2.041,2.926,4.935,2.926,8.628
		C366.21,419.615,365.238,422.498,363.327,424.484z"/>
</g>
</svg>